<svg width="796" height="553" viewBox="0 0 796 553" fill="none" xmlns="http://www.w3.org/2000/svg">
<path d="M570 116.5C546.6 118.6 518.9 122.8 503.5 126.7C465.3 136.1 431.7 148.3 400.3 164.1L385 171.7L381.6 164.6C375.4 151.9 365.3 141.3 353.6 135.3C345.1 131 321.8 124.1 308.7 122C287.6 118.7 250.7 118.9 223.5 122.5C181.5 128.1 137.8 143.2 103.5 163.9C73.7 182 53.7 198.3 28.6 224.9C16.5 237.7 11.9 246.4 10 259.4C8.00001 273.4 10.8 282.7 19.1 290.5C25 296 31.2 299 38.3 299.7C43.8 300.2 55.5 298 55.4 296.4C55.4 295.9 53.2 295.1 50.4 294.7C40.1 293 33 284.7 33 274.2C33 267.3 34.9 263.8 45.5 251.2C86 203 144.1 164.3 202.6 146.5C218.1 141.8 239.8 136.6 253.2 134.5C268.1 132.1 297 132.8 312.5 135.9C328.7 139.2 349 145 353 147.5C362.3 153.4 370 165.8 370 174.8C370 178 369.4 178.9 366.3 181C360 185.2 347 198.1 341.5 205.5C333.4 216.5 329.7 223.7 327 233.7L324.5 242.9L312.5 252.1C278.9 277.7 241.5 299.5 202.8 316.1C185.3 323.6 162 332.4 161.3 331.7C160.8 331.1 176.2 308.1 188.1 291.7C199.1 276.4 206.2 267.1 217.9 253.1C221.3 248.9 225.1 244.4 226.3 243C234.8 232.7 253.7 212.2 265.5 200.3C278.5 187.3 280 186.1 284.1 185.5C287.3 185 289.8 185.3 292.4 186.4C294.5 187.3 296.5 188 296.8 188C297.1 188 297 185.2 296.6 181.8C295.6 172 290.8 165.4 281 160.5C278.3 159.1 276 158.9 269.8 159.3L262 159.8L249.2 171.8C218 201.3 197.4 224.1 175.1 254.2C149.3 288.9 142.6 299.6 117.1 346C115.9 348.2 101.9 350.8 90.5 350.9C79.8 351 78.6 350.7 77.6 347.4C76.3 343.3 97.3 321.7 111.2 312.8C117.1 309 119.7 306 117.2 306C115.5 306 105.4 309.8 101 312C88.8 318.2 74.5 330.4 67.8 340.3C64.2 345.7 63.8 346.7 64.4 350.6C65.6 359.5 71.2 366.5 80.7 371C85.4 373.2 95.7 373.7 99.1 372C102 370.4 101.5 372.4 97.6 378.9C91.9 388.2 83.2 408.5 77.3 425.9C72.5 440.3 71.8 443.1 72.2 448.5C72.7 456.9 76.6 464.4 83 469.3C89.6 474.4 91.5 473.8 89.3 467.5C88.2 464.2 87.9 460.7 88.2 456C88.8 448.4 88 450.1 108 415C114.4 403.7 123.1 388.3 127.4 380.7C132.2 372.2 136.1 366.5 137.4 366C138.5 365.5 143.8 364.2 149 363C182.4 355.3 218.7 342 256.5 323.3C277.3 313 305 296 327.1 279.8C333 275.5 338 272 338.3 272C338.6 272 341 273.5 343.7 275.3C351.2 280.4 363.7 284.1 375.3 284.7C383.9 285.2 385 285.1 385 283.6C385 282.4 384 282 381 282C372.3 282 359.7 273.6 354.9 264.6L352.6 260.1L359 253.8C370.3 242.8 380.4 226.7 385.5 211.5C388.5 202.4 387.3 203.4 412.5 188.2C452.3 164.1 492.7 149.3 540.7 141C544.2 140.4 558.8 138.6 573.2 136.9C594.6 134.4 605.1 133.7 629.5 133.3C683.9 132.3 724 137.6 778.5 152.9C786.1 155 789.7 154.2 783.9 151.6C767.5 144.3 738.9 134.3 722.5 130.1C672.4 117.4 616.1 112.4 570 116.5Z" fill="#C59A4A"/>
<path d="M567 160.6C558.6 163.4 548.7 173.1 522.7 204.3C471.9 265.2 431.4 337.8 404.5 416.5C396.5 439.7 396.5 445 404.5 454.5C406.7 457.2 407.5 457.5 412.8 457.5C418.3 457.5 419.1 457.1 425.6 452.3C429.4 449.5 433.9 445.7 435.6 443.8C438.9 440.3 443 434.6 443 433.6C443 432.4 440.2 433 439.1 434.4C437.4 436.5 429.4 440 426.5 440C422.7 440 421.3 436.2 423.1 430.8C424.9 425.1 456.9 360.8 463.3 350C496.8 293.2 524.6 252.5 559.9 208.6C573.8 191.3 583.8 182 588.6 182C591.1 182 594 184.4 594 186.6C594 187.4 594.7 188 595.6 188C597 188 597.2 187.3 596.7 183.5C595.2 172.7 588.5 163.7 580.1 161.2C576.2 160 569.8 159.7 567 160.6Z" fill="#C59A4A"/>
<path d="M94.5 218.6L106 209.8C112.3 205 117.8 201 118.3 201C119.5 201 119.1 203.9 116.5 212.4C111.7 228.6 108 257.9 108 281V295.7L99.9 299.4C95.5 301.4 91.3 303 90.6 303C88.7 303 88 296.1 88 277.8C88 261.8 89.7 244.1 92.8 227.6L94.5 218.6Z" fill="#131F33"/>
<path d="M133.6 394.2C131.7 397.3 124 411.1 124 411.5C124 411.6 126.5 415.8 129.6 420.6L135.1 429.5L142.3 429.2C148.8 428.9 150.1 429.1 155.4 431.9C158.7 433.7 161.7 434.7 162.2 434.2C162.7 433.7 160 429.2 156.1 423.9C152.3 418.7 146.1 409.4 142.5 403.2C138.8 397.1 135.6 392 135.4 392C135.2 392 134.4 393 133.6 394.2Z" fill="#131F33"/>
<path d="M327.5 10.0999C262.9 17.9999 205.9 45.9999 163 90.6999C147.3 107 129 130.3 129 134C129 135.7 131 135.2 146 129.4C155.4 125.8 160.9 123.1 161.9 121.7C163.9 118.8 175.4 105.9 181.6 99.4999C187.2 93.6999 207.5 77.2999 216.6 71.1999C223.1 66.7999 237.8 58.2999 247.5 53.2999C259 47.2999 282.5 39.1999 300.1 35.0999C319.1 30.5999 330.3 29.4999 357.5 29.4999C380.2 29.4999 384.9 29.7999 395 31.7999C429.9 38.4999 452.2 46.2999 477.1 60.1999C495 70.2999 520.8 89.8999 533.8 103.2L538.1 107.6L544.8 106.8C558.6 105.1 560 104.9 560 103.8C560 100.5 531.8 73.3999 517.2 62.5999C495.2 46.4999 466.3 31.0999 444 23.5999C433.5 20.0999 409.8 13.9999 402.6 12.8999C378.1 9.09989 345.3 7.8999 327.5 10.0999Z" fill="#131F33"/>
<path d="M592.345 159.6C590.445 153.6 588.945 148.3 588.945 147.8C588.945 147.4 589.646 147 590.445 147C592.345 147 601.245 164.8 607.245 180.6C615.845 203.2 621.245 226 623.945 250.5C625.146 261 625.445 294.3 624.445 302C621.046 328.2 615.345 353.4 610.245 364.7C604.745 376.8 592.745 391.7 580.745 401.3C568.145 411.3 552.845 418.6 537.546 421.9C521.945 425.2 514.345 430.4 509.345 441.2C505.546 449.7 505.345 460.2 509.046 467.4C512.146 473.7 519.046 481.4 522.945 483C524.546 483.7 525.945 484.8 525.845 485.4C525.745 487.9 496.645 507.2 480.245 515.6C433.545 539.6 380.445 549.9 330.945 544.5C298.745 541 270.745 533.4 243.245 520.4C233.445 515.9 231.145 513.3 237.745 514.3C248.245 516 256.045 516.2 267.345 515C278.945 513.8 280.045 513.9 286.545 515.8C301.845 520.4 339.445 527.6 338.645 525.4C379.445 528.8 426.345 519.6 465.645 500.6C480.645 493.2 496.945 483.6 496.945 482C496.945 481.5 496.046 479.6 495.046 477.8C487.046 464.2 488.045 442 497.145 427.7C503.145 418.3 510.945 412.7 528.945 405C548.745 396.5 555.645 392.4 567.745 382.1C577.645 373.6 590.145 356.7 595.145 345.1C597.445 339.6 601.145 323.9 603.245 310.5C605.945 293.5 606.945 278.9 607.046 257.3C607.046 221 602.845 193.1 592.345 159.6Z" fill="#131F33"/>
<path d="M530.5 433.6C525.4 435.5 521.6 439.2 518.5 445.4C515.4 451.7 515.3 457 518.4 463.5C528.7 485.8 561 478.8 561 454.3C561 444.3 555.7 436.9 545.9 433.5C540.8 431.7 535.7 431.7 530.5 433.6Z" fill="#D39D5D"/>
<path d="M145.279 474.479C138.043 472.399 132.77 469.851 129.459 466.833C126.178 463.786 124.537 460.036 124.537 455.583C124.537 450.544 126.544 446.384 130.558 443.103C134.601 439.792 139.845 438.137 146.29 438.137C150.685 438.137 154.596 438.986 158.023 440.686C161.48 442.385 164.146 444.729 166.021 447.717C167.926 450.705 168.878 453.972 168.878 457.517H160.396C160.396 453.649 159.166 450.617 156.705 448.42C154.244 446.193 150.772 445.08 146.29 445.08C142.13 445.08 138.878 446.003 136.534 447.849C134.22 449.665 133.062 452.199 133.062 455.451C133.062 458.059 134.161 460.271 136.358 462.087C138.585 463.874 142.35 465.515 147.652 467.009C152.984 468.503 157.145 470.158 160.133 471.975C163.15 473.762 165.377 475.856 166.812 478.259C168.277 480.661 169.01 483.488 169.01 486.74C169.01 491.926 166.988 496.086 162.945 499.221C158.902 502.326 153.497 503.879 146.729 503.879C142.335 503.879 138.233 503.044 134.425 501.374C130.616 499.675 127.672 497.36 125.592 494.431C123.541 491.501 122.516 488.176 122.516 484.455H130.997C130.997 488.322 132.418 491.384 135.26 493.64C138.131 495.866 141.954 496.979 146.729 496.979C151.183 496.979 154.596 496.071 156.969 494.255C159.342 492.438 160.528 489.963 160.528 486.828C160.528 483.693 159.43 481.276 157.232 479.577C155.035 477.849 151.051 476.149 145.279 474.479ZM189.62 443.938V455.451H198.497V461.735H189.62V491.223C189.62 493.127 190.016 494.562 190.807 495.529C191.598 496.467 192.945 496.936 194.85 496.936C195.787 496.936 197.076 496.76 198.717 496.408V503C196.578 503.586 194.498 503.879 192.477 503.879C188.844 503.879 186.104 502.78 184.259 500.583C182.413 498.386 181.49 495.266 181.49 491.223V461.735H172.833V455.451H181.49V443.938H189.62ZM237.389 498.298C234.225 502.019 229.581 503.879 223.458 503.879C218.39 503.879 214.522 502.414 211.856 499.484C209.22 496.525 207.887 492.16 207.857 486.389V455.451H215.987V486.169C215.987 493.376 218.917 496.979 224.776 496.979C230.987 496.979 235.118 494.665 237.169 490.036V455.451H245.299V503H237.564L237.389 498.298ZM255.714 478.83C255.714 471.535 257.442 465.676 260.899 461.252C264.356 456.799 268.883 454.572 274.479 454.572C280.045 454.572 284.454 456.477 287.706 460.285V435.5H295.836V503H288.365L287.97 497.902C284.718 501.887 280.191 503.879 274.391 503.879C268.883 503.879 264.386 501.623 260.899 497.111C257.442 492.6 255.714 486.711 255.714 479.445V478.83ZM263.844 479.753C263.844 485.144 264.957 489.362 267.184 492.409C269.41 495.456 272.486 496.979 276.412 496.979C281.568 496.979 285.333 494.665 287.706 490.036V468.195C285.274 463.713 281.539 461.472 276.5 461.472C272.516 461.472 269.41 463.01 267.184 466.086C264.957 469.162 263.844 473.718 263.844 479.753ZM317.325 503H309.195V455.451H317.325V503ZM308.536 442.839C308.536 441.521 308.932 440.407 309.723 439.499C310.543 438.591 311.744 438.137 313.326 438.137C314.908 438.137 316.109 438.591 316.93 439.499C317.75 440.407 318.16 441.521 318.16 442.839C318.16 444.157 317.75 445.256 316.93 446.135C316.109 447.014 314.908 447.453 313.326 447.453C311.744 447.453 310.543 447.014 309.723 446.135C308.932 445.256 308.536 444.157 308.536 442.839ZM328.224 478.786C328.224 474.128 329.132 469.938 330.948 466.218C332.794 462.497 335.343 459.626 338.595 457.604C341.876 455.583 345.611 454.572 349.801 454.572C356.275 454.572 361.505 456.813 365.489 461.296C369.503 465.778 371.51 471.74 371.51 479.182V479.753C371.51 484.382 370.616 488.542 368.829 492.233C367.071 495.896 364.537 498.752 361.227 500.803C357.945 502.854 354.166 503.879 349.889 503.879C343.443 503.879 338.214 501.638 334.2 497.155C330.216 492.673 328.224 486.74 328.224 479.357V478.786ZM336.397 479.753C336.397 485.026 337.613 489.26 340.045 492.453C342.506 495.646 345.787 497.243 349.889 497.243C354.02 497.243 357.301 495.632 359.732 492.409C362.164 489.157 363.38 484.616 363.38 478.786C363.38 473.571 362.135 469.353 359.645 466.13C357.184 462.878 353.902 461.252 349.801 461.252C345.787 461.252 342.55 462.849 340.089 466.042C337.628 469.235 336.397 473.806 336.397 479.753Z" fill="#D39D5D"/>
</svg>
